<?xml version="1.0" encoding="UTF-8" standalone="no"?>
<!DOCTYPE svg PUBLIC "-//W3C//DTD SVG 1.1//EN" "http://www.w3.org/Graphics/SVG/1.1/DTD/svg11.dtd">
<svg width="100%" height="100%" viewBox="0 0 1024 1024" version="1.1" xmlns="http://www.w3.org/2000/svg" xmlns:xlink="http://www.w3.org/1999/xlink" xml:space="preserve" xmlns:serif="http://www.serif.com/" style="fill-rule:evenodd;clip-rule:evenodd;stroke-linejoin:round;stroke-miterlimit:2;">
    <g>
        <path d="M30.5,0L1023.999,0C1025.156,2.148 1023.999,2.338 1023.999,30.5L1023.999,1023.999C1021.851,1025.156 1021.661,1023.999 993.5,1023.999L0,1023.999C-1.027,1022.092 0,1019.666 0,1017.5L0,0C2.148,-1.157 2.338,0 30.5,0Z"/>
        <g id="_4" serif:id="4" transform="matrix(1,0,0,1,-10.190071,0)">
            <path d="M690.5,279.034C715.577,279.034 715.891,278.569 719.208,280.925C723.563,284.018 973.764,466.186 974.388,466.648C983.308,473.267 979.608,475.344 979.703,486.498C979.769,494.143 979.946,562.223 979.537,563.514C978.802,565.839 974.481,564.56 922.501,565.018C888.394,565.319 732.06,564.866 715.5,564.818C712.039,564.808 712.922,566.766 712.918,590.501C712.905,658.679 713.161,659.413 711.399,660.155C710.984,660.33 710.951,660.21 609.5,660.224C552.629,660.233 552.663,659.754 552.453,659.549C550.491,657.63 552.5,567.101 551.312,565.685C550.311,564.492 491.127,564.907 490.514,565.514C488.987,567.029 491.335,657.907 489.235,659.078C487.585,659.998 345.041,659.394 332.502,659.341C332.382,659.341 329.888,659.632 329.844,657.47C329.609,646.129 330.315,566.611 329.43,565.556C327.94,563.781 66.106,565.956 64.596,564.406C63.82,563.61 63.759,471.764 64.631,470.586C65.086,469.972 328.228,277.933 330.5,277.502C330.819,277.442 488.279,276.986 489.321,277.741C491.273,279.155 488.631,468.747 490.723,470.202C491.516,470.753 550.035,470.999 551.118,470.024C552.815,468.497 550.272,280.434 552.403,279.36C553.13,278.993 553.176,279.034 690.5,279.034Z" style="fill:rgb(254,254,254);"/>
            <path d="M712.917,446.5C712.865,398.666 712.58,398.688 712.622,394.53C712.659,390.807 715.017,394.314 750.892,421.012C758.463,426.646 758.573,426.345 766.155,431.956C770.205,434.952 816.74,469.382 816.75,469.455C817.071,471.761 815.26,470.599 768.501,470.922C741.968,471.105 742.075,470.895 715.497,470.893C712.165,470.893 712.911,469.085 712.917,446.5Z"/>
            <path d="M329.832,437.5C329.832,469.03 330.35,470.55 327.512,470.7C325.529,470.805 234.053,470.501 228.388,470.872C222.151,471.281 229.793,467.791 290.183,423.072C324.215,397.871 329.163,393.432 329.803,395.335C329.858,395.5 329.832,395.508 329.832,437.5Z"/>
        </g>
    </g>
</svg>
